<svg width="20" height="20" viewBox="0 0 20 20" fill="none" xmlns="http://www.w3.org/2000/svg">
<path d="M3.27946 3.27971L3.27961 3.27956C5.68059 0.87858 9.18011 -0.0591115 12.4599 0.81971C15.7397 1.69853 18.3015 4.26035 19.1804 7.54016C20.0592 10.82 19.1215 14.3195 16.7205 16.7205L16.7197 16.7213C14.9414 18.5076 12.5223 19.5082 10.0017 19.5001L9.99977 19.5001C6.15564 19.5023 2.68903 17.1876 1.21765 13.6363C-0.253741 10.0849 0.56013 5.99679 3.27946 3.27971ZM1.50006 10.172H1.50003L1.50009 10.1774C1.55036 14.8537 5.36876 18.611 10.0453 18.586C14.7218 18.5607 18.4996 14.7626 18.4996 10.086C18.4996 5.40942 14.7218 1.61128 10.0453 1.58602L10.0453 1.58602C5.36876 1.561 1.55036 5.31832 1.50009 9.99464H1.50006V10V10.172ZM8.94361 9.64646L6.70716 7.41001L7.41006 6.70712L9.6465 8.94356L10.0001 9.29712L10.3536 8.94356L12.5901 6.70712L13.2929 7.41001L11.0565 9.64646L10.703 10L11.0565 10.3536L13.2931 12.5901L12.5909 13.2928L10.3535 11.0564L9.99999 10.703L9.6465 11.0565L7.40968 13.2933L6.70704 12.5901L8.94361 10.3536L9.29716 10L8.94361 9.64646Z" stroke="#A89999"/>
</svg>
