<svg width="20" height="20" viewBox="0 0 20 20" fill="none" xmlns="http://www.w3.org/2000/svg">
<path d="M1.5 10.172H1.49997L1.50003 10.1774C1.5503 14.8537 5.36871 18.611 10.0452 18.586C14.7217 18.5607 18.4995 14.7626 18.4995 10.086C18.4995 5.40941 14.7217 1.61127 10.0452 1.586L10.0452 1.586C5.36871 1.56099 1.5503 5.31831 1.50003 9.99463H1.5V10V10.172ZM10.5 14.5H9.5V11V10.5H9H5.5V9.5H9H9.5V9V5.5H10.5V9V9.5H11H14.5V10.5H11H10.5V11V14.5ZM9.99945 19.5C4.75299 19.4997 0.5 15.2465 0.5 10C0.5 4.75329 4.75329 0.5 10 0.5C15.2465 0.5 19.4997 4.75299 19.5 9.99945C19.4942 15.2441 15.2441 19.4942 9.99945 19.5Z" stroke="#A89999"/>
</svg>
