<svg width="20" height="20" viewBox="0 0 20 20" fill="none" xmlns="http://www.w3.org/2000/svg">
<path d="M5.85509 18.5505L5.8548 18.5504C5.38304 18.3209 4.931 18.053 4.50326 17.7492L4.37103 17.6527C4.3707 17.6525 4.37037 17.6522 4.37004 17.652C3.1918 16.7821 2.22848 15.6539 1.55398 14.3538C0.856838 13.0093 0.49526 11.5161 0.500049 10.0016V10C0.500049 4.7533 4.75339 0.5 10.0001 0.5C15.2468 0.5 19.5001 4.7533 19.5001 10L19.5002 10.0016C19.5049 11.5154 19.1436 13.0079 18.4472 14.352C17.7736 15.6512 16.8117 16.779 15.635 17.6491C15.1912 17.9739 14.7202 18.2599 14.2273 18.5039L14.2255 18.5048L14.1493 18.5429C14.1487 18.5432 14.148 18.5435 14.1474 18.5438C12.8565 19.1753 11.438 19.5024 10.0009 19.5L9.9987 19.5C8.56311 19.5041 7.14566 19.1793 5.85509 18.5505ZM5.99834 16.9386L5.76653 17.3899L6.22118 17.6151C8.60241 18.7945 11.3978 18.7945 13.779 17.6151L14.0571 17.4773V17.167V17.162V17.0408L14.0016 16.9331C13.2303 15.435 11.6847 14.4953 9.99973 14.5C8.31395 14.4972 6.76859 15.4389 5.99834 16.9386ZM14.7938 16.302L15.0946 16.8343L15.5551 16.4351L15.5629 16.4289L15.5719 16.4209L15.5889 16.4059L15.5887 16.4057C18.2523 14.0823 19.2011 10.351 17.9674 7.03572C16.7289 3.70772 13.5521 1.50032 10.0011 1.50032C6.45013 1.50032 3.27334 3.70772 2.03485 7.03572C0.796353 10.3637 1.75716 14.1109 4.44422 16.4324L4.90591 16.8312L5.2063 16.3002C6.18383 14.5721 8.01466 13.5026 10.0001 13.5C11.9859 13.5028 13.8169 14.573 14.7938 16.302ZM10.0001 11.5C8.0671 11.5 6.5001 9.933 6.5001 8C6.5001 6.067 8.0671 4.5 10.0001 4.5C11.9331 4.5 13.5001 6.067 13.5001 8C13.5001 8.92826 13.1314 9.8185 12.475 10.4749C11.8186 11.1313 10.9284 11.5 10.0001 11.5ZM10.0001 5.5C8.61939 5.5 7.5001 6.61929 7.5001 8C7.5001 9.38071 8.61939 10.5 10.0001 10.5C11.3808 10.5 12.5001 9.38071 12.5001 8C12.5001 6.61929 11.3808 5.5 10.0001 5.5Z" fill="#2E3A59" stroke="#A89999"/>
</svg>
